<svg xmlns="http://www.w3.org/2000/svg" xmlns:xlink="http://www.w3.org/1999/xlink" viewBox="0 0 361.91 98.31"><defs><style>.cls-1{fill:none;}.cls-2{isolation:isolate;}.cls-3{clip-path:url(#clip-path);}.cls-4{fill:url(#linear-gradient);}.cls-5{fill:url(#linear-gradient-2);}.cls-6{fill:url(#linear-gradient-3);}.cls-7{fill:url(#linear-gradient-4);}.cls-8{fill:url(#linear-gradient-5);}.cls-9{fill:url(#linear-gradient-6);}.cls-10{fill:url(#linear-gradient-7);}.cls-11{fill:url(#linear-gradient-8);}.cls-12{fill:url(#linear-gradient-9);}.cls-13{fill:url(#linear-gradient-10);}.cls-14{fill:url(#linear-gradient-11);}.cls-15{fill:url(#linear-gradient-12);}.cls-16{fill:url(#linear-gradient-13);}.cls-17{fill:url(#linear-gradient-14);}.cls-18{fill:url(#linear-gradient-15);}.cls-19{fill:url(#linear-gradient-16);}.cls-20{fill:url(#linear-gradient-17);}.cls-21{fill:url(#linear-gradient-18);}.cls-22{mix-blend-mode:multiply;opacity:0.2;fill:url(#linear-gradient-19);}.cls-23{font-size:51.04px;fill:#fff;font-family:Arboria-Bold, Arboria;font-weight:700;}.cls-24,.cls-25,.cls-26{font-family:Arboria-Light, Arboria;font-weight:300;}.cls-24{letter-spacing:-0.04em;}.cls-26{letter-spacing:-0.01em;}</style><clipPath id="clip-path" transform="translate(1.83)"><path class="cls-1" d="M73.32,37.92a36.45,36.45,0,1,0-59.89,27.9,7.38,7.38,0,0,1,2.63,5.63v8.43A4.07,4.07,0,0,0,20.14,84H53.62a4.07,4.07,0,0,0,4.07-4.08V71.45a7.35,7.35,0,0,1,2.64-5.63A36.38,36.38,0,0,0,73.32,37.92Z"/></clipPath><linearGradient id="linear-gradient" x1="22.12" y1="3.55" x2="52.59" y2="85.83" gradientUnits="userSpaceOnUse"><stop offset="0" stop-color="#fb8500"/><stop offset="0.67" stop-color="#ffb403"/><stop offset="1" stop-color="#8ecae6"/></linearGradient><linearGradient id="linear-gradient-2" x1="20.48" y1="4.88" x2="50.74" y2="86.59" xlink:href="#linear-gradient"/><linearGradient id="linear-gradient-3" x1="1.67" y1="20.78" x2="28.62" y2="36.61" xlink:href="#linear-gradient"/><linearGradient id="linear-gradient-4" x1="23.23" y1="2.22" x2="54.34" y2="86.2" xlink:href="#linear-gradient"/><linearGradient id="linear-gradient-5" x1="21.5" y1="2.41" x2="52.93" y2="87.29" xlink:href="#linear-gradient"/><linearGradient id="linear-gradient-6" x1="26.28" y1="1.63" x2="56.97" y2="84.5" xlink:href="#linear-gradient"/><linearGradient id="linear-gradient-7" x1="31.67" y1="52.08" x2="21.94" y2="82.86" xlink:href="#linear-gradient"/><linearGradient id="linear-gradient-8" x1="22.67" y1="2.78" x2="52.25" y2="82.63" xlink:href="#linear-gradient"/><linearGradient id="linear-gradient-9" x1="22.59" y1="2.82" x2="52.16" y2="82.66" xlink:href="#linear-gradient"/><linearGradient id="linear-gradient-10" x1="22.34" y1="2.96" x2="53.11" y2="86.05" xlink:href="#linear-gradient"/><linearGradient id="linear-gradient-11" x1="19.55" y1="33.88" x2="40.37" y2="58.26" xlink:href="#linear-gradient"/><linearGradient id="linear-gradient-12" x1="37.95" y1="8.1" x2="50.5" y2="22.79" xlink:href="#linear-gradient"/><linearGradient id="linear-gradient-13" x1="48.29" y1="13.62" x2="82.97" y2="54.24" xlink:href="#linear-gradient"/><linearGradient id="linear-gradient-14" x1="58.14" y1="36.38" x2="75.48" y2="56.69" xlink:href="#linear-gradient"/><linearGradient id="linear-gradient-15" x1="4.27" y1="19.49" x2="31.21" y2="35.32" xlink:href="#linear-gradient"/><linearGradient id="linear-gradient-16" x1="26.85" y1="49.97" x2="17.11" y2="80.75" xlink:href="#linear-gradient"/><linearGradient id="linear-gradient-17" x1="46.82" y1="-2.78" x2="18.02" y2="113.23" xlink:href="#linear-gradient"/><linearGradient id="linear-gradient-18" x1="6.89" y1="4.42" x2="37.88" y2="88.11" xlink:href="#linear-gradient"/><linearGradient id="linear-gradient-19" x1="42.36" y1="83.71" x2="42.14" y2="83.76" gradientUnits="userSpaceOnUse"><stop offset="0" stop-color="#666"/><stop offset="1" stop-color="#f2f2f2"/></linearGradient></defs><g class="cls-2"><g id="Layer_2" data-name="Layer 2"><g id="Designs"><g class="cls-3"><path class="cls-4" d="M73.76,33.49h0a.5.5,0,0,0,0-.12l0,.1a5,5,0,0,1,0,1.1A5.57,5.57,0,0,1,73.5,36a7.14,7.14,0,0,1-.39.94,11.26,11.26,0,0,1-.89,1.45,15.59,15.59,0,0,1-1.78,2,23.89,23.89,0,0,1-2,1.75c-.4.32-.81.63-1.23.92l-.12.09c-1,.69-2,1.34-3.07,1.95-1.53.89-3.11,1.68-4.7,2.42s-3.24,1.42-4.89,2c-.32.12-.65.25-1,.36-.58.21-1.15.42-1.73.61l-.93.31-.89.29-.43.13c-.53.17-1.05.33-1.58.48l-1,.3-.06,0c-.93.26-1.87.5-2.8.74l-1.61.38c-.43.11-.88.21-1.32.3l-1.75.38-.5.1-2,.38c-.85.16-1.71.3-2.58.43-1.73.27-3.48.5-5.22.68-2.56.27-5.12.44-7.69.49H18.6l-1.23,0c-1.31,0-2.62-.14-3.92-.27-.57-.06-1.14-.13-1.7-.21C11,55.3,10.18,55.16,9.4,55l-1-.22A22.71,22.71,0,0,1,6.06,54a12.81,12.81,0,0,1-2.17-1,6.08,6.08,0,0,1-1.68-1.43,3.3,3.3,0,0,1-.74-1.76,4.47,4.47,0,0,1,.35-2A9.49,9.49,0,0,1,3,45.68,22.32,22.32,0,0,1,6.43,42l1.08-.9c.67-.53,1.35-1,2.05-1.54l1-.69q2.17-1.44,4.46-2.7c.9-.49,1.81-1,2.73-1.43s1.87-.91,2.82-1.33q2-.87,3.93-1.65l.47-.18,1-.37,1.19-.43.89-.32,1.89-.62c1.5-.48,3-.92,4.54-1.32l1.74-.44L36.5,28l.76-.18c.76-.17,1.52-.34,2.29-.49l.21,0c1.64-.33,3.29-.61,5-.83s3.33-.4,5-.51l1.67-.1h.39c.59,0,1.18,0,1.77,0h1.62a48.18,48.18,0,0,1,5.23.35,35.17,35.17,0,0,1,3.67.63c.23,0,.45.1.67.15l.81.22A22.24,22.24,0,0,1,68,28a15.86,15.86,0,0,1,2.37,1.18,10.53,10.53,0,0,1,1.1.79,7.42,7.42,0,0,1,.95.91,5.35,5.35,0,0,1,.58.77,4.9,4.9,0,0,1,.56,1.18.93.93,0,0,1,0,.13,1,1,0,0,0,0-.16A4.73,4.73,0,0,0,73,31.61a5.62,5.62,0,0,0-.56-.75,8.71,8.71,0,0,0-1-.94,11.6,11.6,0,0,0-1.07-.77,19.81,19.81,0,0,0-4.85-2.09l-.8-.23-.66-.17c-1.22-.3-2.45-.53-3.69-.72q-2.61-.37-5.25-.51-.8,0-1.59-.06c-.63,0-1.26,0-1.9,0H51.4c-.59,0-1.17,0-1.76,0-1.67,0-3.34.14-5,.28-1.88.17-3.77.39-5.65.68l-.8.12-.77.13-1,.17c-.76.14-1.52.28-2.28.44l-.43.09-1.1.25c-1.55.35-3.1.74-4.64,1.17L27,29l-1.29.39-.67.22L23.91,30c-1,.34-2,.7-3,1.08s-1.86.73-2.77,1.12Q16.07,33,14,34.07c-1.6.81-3.18,1.69-4.71,2.66-.55.36-1.1.72-1.64,1.09-.7.49-1.39,1-2.07,1.53-.25.2-.5.4-.74.61-.71.6-1.4,1.23-2.06,1.91a20.06,20.06,0,0,0-1.87,2.2A14.1,14.1,0,0,0-.18,45.88c-.05.11-.11.22-.15.33s-.11.24-.16.36l-.07.16c0,.12-.09.23-.13.35s0,.05,0,.07,0,.1-.05.15c-.08.23-.14.47-.2.72h0a.19.19,0,0,1,0,.08,1.18,1.18,0,0,1,0,.2,6.77,6.77,0,0,0-.1,1.28c0,.16,0,.32,0,.47A5.93,5.93,0,0,0-.66,51.8h0a7.16,7.16,0,0,0,.51.95c.09.13.17.26.26.37l.12.15c.13.17.26.32.4.47l0,0L.9,54l0,0,0,0a9,9,0,0,0,1,.8l.14.1.53.34a14.36,14.36,0,0,0,2.61,1.23,23.81,23.81,0,0,0,2.67.78l.4.1c.73.16,1.46.28,2.18.39.93.14,1.86.24,2.78.31,1.48.12,3,.17,4.43.16h.93l1.69-.05.44,0,.45,0c2.61-.14,5.2-.42,7.77-.81l.24,0q3.33-.51,6.63-1.25l1.52-.35q1-.24,2-.51l.19,0,.93-.25.31-.08,1.09-.31c.94-.26,1.86-.53,2.79-.82L45,53.6l1.46-.47,1-.34c.73-.25,1.46-.5,2.19-.77l.1,0q.89-.31,1.77-.66c.74-.29,1.48-.58,2.21-.89l.72-.3h0l.2-.09c1.6-.68,3.18-1.42,4.74-2.2s3.14-1.66,4.66-2.58c1.05-.64,2.07-1.32,3.06-2l.12-.08,1.2-.93a20.67,20.67,0,0,0,3.76-3.83,9.92,9.92,0,0,0,.87-1.43,9.08,9.08,0,0,0,.41-1,5.53,5.53,0,0,0,.28-1.39A4.43,4.43,0,0,0,73.76,33.49Z" transform="translate(1.83)"/><path class="cls-5" d="M41.9,54.53l-1.09.31,1.13-.26Zm31.86-2.22a1,1,0,0,0-.07-.15.05.05,0,0,0,0,0l-.09-.18-.12-.2-.11-.14a1.15,1.15,0,0,0-.14-.17l0,0,0,0,0,0,0,0a3.25,3.25,0,0,0-.48-.44,4.35,4.35,0,0,0-.68-.44,7.28,7.28,0,0,0-1.21-.51c-.4-.13-.79-.23-1.18-.32a17.09,17.09,0,0,0-2.31-.32c-.76-.07-1.51-.1-2.26-.11-1.5,0-3,.07-4.46.19s-2.94.3-4.39.51l-1.4.22-.23,0h0l-.82.14-2,.37-.91.18-.88.19L48,51.44l-.74.18-.29.07c-1.07.25-2.12.53-3.17.81l-1,.27-1.85.53L39,53.87l-.21.07-1.64.51-1.92.63q-2.28.78-4.55,1.62L29,57.36Q25.71,58.62,22.54,60l-1.37.64-.36.17-.14.07c-.79.38-1.58.77-2.36,1.18-1.21.63-2.41,1.3-3.58,2a26.78,26.78,0,0,0-3.58,2.6l-.32.3a1.34,1.34,0,0,0-.21.2c-.09.09-.18.17-.26.26l-.09.11c-.16.17-.31.35-.45.53l-.18.25,0,0a4.13,4.13,0,0,0-.33.58h0a2.44,2.44,0,0,0-.14.34s0,0,0,0A2.6,2.6,0,0,0,9,70a2.2,2.2,0,0,1,.12-.62,0,0,0,0,1,0,0c0-.11.08-.22.13-.33h0a4.19,4.19,0,0,1,.34-.58l0-.06.18-.24c.14-.18.29-.36.45-.53l.1-.1a3.07,3.07,0,0,1,.25-.26l.22-.21.32-.29a17.7,17.7,0,0,1,1.75-1.35c.61-.42,1.23-.81,1.86-1.19,1.16-.69,2.36-1.31,3.57-1.9l.31-.15c.68-.33,1.37-.64,2.06-.94l.1,0,.35-.16,1.51-.63a111.46,111.46,0,0,1,13.14-4.31l1.44-.38,2-.5h0l1.19-.28.29-.06,1.13-.26c.87-.19,1.73-.37,2.6-.54l.35-.08,1.44-.27.92-.17.58-.11,1.82-.31,1.63-.25c1.24-.19,2.47-.36,3.7-.5l1-.11.44-.05a66.34,66.34,0,0,1,8.54-.41,22.77,22.77,0,0,1,4.1.45,6.76,6.76,0,0,1,1.73.59,2.59,2.59,0,0,1,.53.39.51.51,0,0,1,.13.26,1.1,1.1,0,0,1,0,.16,2.55,2.55,0,0,1-.08.28,3.61,3.61,0,0,1-.39.7,9.61,9.61,0,0,1-1.3,1.45,26,26,0,0,1-3.35,2.56l-.37.25-.15.09c-1.53,1-3.13,1.89-4.76,2.74l-.77.39c-.49.26-1,.5-1.49.75q-2.25,1.08-4.56,2.07c-.74.32-1.49.63-2.23.93l-1.18.46c-1.23.48-2.46.94-3.7,1.38l-1,.35c-1.17.4-2.34.78-3.52,1.15-1,.31-2,.6-3,.88l-.25.07A93.15,93.15,0,0,1,25.61,73h0l-1.47.16-1,.1h-.07l-.73.06-.56,0-.51,0-1.76.07h-1c-.54,0-1.07,0-1.6,0l-.75,0-.94-.08-.48,0-1.08-.16c-.31,0-.61-.11-.92-.18l-.15,0a9.36,9.36,0,0,1-2-.71l-.07,0a3.73,3.73,0,0,1-.89-.64,2,2,0,0,1-.53-.82,2.05,2.05,0,0,0,.52.83,4.38,4.38,0,0,0,.9.65l.1,0a9.68,9.68,0,0,0,1.95.71l.2,0c.31.08.62.14.93.2.53.1,1.08.18,1.62.24l1,.09.61,0c.61,0,1.23.06,1.85.07l1.06,0c.69,0,1.37,0,2.06,0l1.23-.05h.12l1-.06,1.37-.1L27,73.2c2.43-.23,4.85-.56,7.27-1,1.4-.23,2.8-.49,4.2-.77l.19,0c1.41-.29,2.81-.6,4.2-.94.81-.2,1.62-.4,2.43-.62l1-.26q3.66-1,7.26-2.25c.75-.26,1.49-.53,2.23-.81,1.3-.49,2.59-1,3.88-1.57l1.53-.69.86-.4c.55-.26,1.1-.54,1.64-.82,1.33-.68,2.64-1.41,3.92-2.23.3-.18.59-.37.88-.57l.71-.49.31-.23.07,0c.38-.28.75-.56,1.11-.87a3.88,3.88,0,0,0,.31-.26l.33-.3a3.26,3.26,0,0,0,.33-.31l.29-.28c.19-.2.37-.4.56-.62a4,4,0,0,0,.26-.32c.43-1.32.79-2.65,1.09-4ZM9.08,70.56s0,0,0,0h0S9.09,70.57,9.08,70.56Z" transform="translate(1.83)"/><path class="cls-6" d="M73.37,52.78a5.07,5.07,0,0,0-.05-.56c0-.11,0-.22,0-.33l0-.18c0-.07,0-.14,0-.21s0-.1,0-.14l0-.11a8,8,0,0,0-.36-1c-.15-.35-.31-.7-.49-1A21,21,0,0,0,69,44.87c-.57-.6-1.16-1.18-1.76-1.74L67.19,43c-.67-.62-1.36-1.22-2.07-1.79-1.38-1.13-2.81-2.19-4.27-3.19l-1.41-.94c-.49-.32-1-.64-1.48-.94-1.74-1.09-3.53-2.11-5.34-3.07l0,0-.85-.45-.91-.46-.58-.29h0q-4-2-8.15-3.61c-.73-.29-1.46-.57-2.2-.84l-.34-.12-1.71-.6-.43-.15L36,26.09l-1.09-.34c-.94-.28-1.87-.55-2.81-.81l-2-.52c-.69-.17-1.38-.33-2.07-.47-1.57-.35-3.15-.64-4.75-.88l-.7-.1-.81-.11h0l-1.21-.14c-1.36-.15-2.73-.24-4.1-.28a37.37,37.37,0,0,0-5.38.22,25.61,25.61,0,0,0-2.71.47A16.1,16.1,0,0,0,5.58,24a14.38,14.38,0,0,0-1.31.64c-.28.17-.55.34-.82.54s-.31.23-.46.35a1.68,1.68,0,0,0-.21.18L2.49,26l-.28.3c-.12.13-.23.26-.34.4v0a4,4,0,0,0-.37.54,5.93,5.93,0,0,0-.48,1,5.58,5.58,0,0,0-.35,1.45l0,.29v.19c0,.13,0,.26,0,.39l0,.5,0,.26.06.37c0,.16.07.31.11.47a5.45,5.45,0,0,0,.2.69,11.15,11.15,0,0,0,.79,1.79A16,16,0,0,0,3.48,37a25.3,25.3,0,0,0,1.88,2.1l.24.23c.62.61,1.26,1.18,1.91,1.73s1.34,1.1,2,1.61c1.44,1.09,2.94,2.09,4.47,3l.84.51c.67.4,1.36.79,2,1.17l.2.11c.85.47,1.72.92,2.58,1.36l1.46.71.78.37,1.56.72c3.23,1.44,6.53,2.7,9.87,3.81l.85.27,1,.33c.68.21,1.35.42,2,.61l.08,0,1.75.49,2.14.56c.75.18,1.5.37,2.26.54l.87.19.66.14.62.13c.9.19,1.81.36,2.72.52l.46.08,1.18.19c1.27.19,2.55.36,3.83.5,1.7.18,3.41.29,5.12.34h.9a41,41,0,0,0,4.43-.23c.5-.06,1-.13,1.49-.22a16.49,16.49,0,0,0,3.59-1c.25-.1.5-.22.74-.34l.51-.28h0l.26-.16a8.11,8.11,0,0,0,.73-.54l0,0,.23-.21a5.17,5.17,0,0,0,.58-.65,4.76,4.76,0,0,0,.31-.47,3.71,3.71,0,0,0,.26-.53,3.33,3.33,0,0,1-.25.5,3.08,3.08,0,0,1-.32.48,5,5,0,0,1-.57.65l-.25.22h0a6.05,6.05,0,0,1-.72.53l-.26.17-.51.28-.76.35a14.77,14.77,0,0,1-2.51.75l-.93.18c-.54.09-1.1.16-1.65.21a34.08,34.08,0,0,1-4.52.13l-.69,0h-.23c-1.65-.08-3.31-.26-5-.49-1.25-.17-2.5-.39-3.75-.63l-1.2-.25-1.16-.25-1.86-.45L45.26,57l-1.59-.43-.18-.05-1.39-.4Q41,55.76,40,55.41l-.59-.2-.08,0c-.72-.24-1.44-.48-2.15-.74l-.38-.13c-1-.36-2-.73-3-1.12q-4.87-1.91-9.55-4.26l-2-1-.86-.46c-.57-.32-1.14-.63-1.7-1l-1.21-.7-1.54-.94-.71-.45-1-.68c-1.46-.95-2.87-2-4.23-3q-.7-.55-1.38-1.14c-.65-.55-1.28-1.13-1.89-1.72l-.58-.58a18.87,18.87,0,0,1-3-4,7.25,7.25,0,0,1-.79-2.14,3.5,3.5,0,0,1,.14-1.94,3.82,3.82,0,0,1,1.18-1.58,8,8,0,0,1,2-1.15,18.86,18.86,0,0,1,4.74-1.22,40.16,40.16,0,0,1,5-.31c1.14,0,2.28,0,3.42.11l1.69.13.56.05.89.1,1.91.23,2.3.35c.68.11,1.35.24,2,.36.84.16,1.68.33,2.52.52l1.48.34.62.14c.87.21,1.73.44,2.6.67l.16,0,1.13.31c1.3.37,2.58.77,3.87,1.2l.17.06c2.92,1,5.8,2.07,8.63,3.32l.41.19.69.31,1.05.49.22.1c1.69.81,3.35,1.67,5,2.6.52.29,1,.6,1.54.9l1.46.9c1.48,1,2.94,2,4.33,3,.71.55,1.4,1.12,2.08,1.72l.09.08c.63.55,1.24,1.13,1.82,1.73a26.21,26.21,0,0,1,1.77,2,15.56,15.56,0,0,1,1.49,2.24,8,8,0,0,1,.51,1.06,6.18,6.18,0,0,1,.36,1,.14.14,0,0,1,0,.06c0,.07,0,.13.05.19s0,.13,0,.19a1.77,1.77,0,0,1,0,.2c0,.11,0,.23,0,.34a5.07,5.07,0,0,1,0,.56,5.33,5.33,0,0,1,0,.56,5,5,0,0,1-.12.76,4.2,4.2,0,0,0,.13-.79c0-.14,0-.27,0-.41Z" transform="translate(1.83)"/><path class="cls-7" d="M53.8,18.06q0-.87-.09-1.74c0-.29-.05-.59-.08-.88a29.09,29.09,0,0,0-.41-2.91,21.16,21.16,0,0,0-.72-2.76,12.17,12.17,0,0,0-1.09-2.39l-.2-.31,0-.06c-.11-.16-.22-.31-.34-.46a7.06,7.06,0,0,0-.63-.72,5.13,5.13,0,0,0-.66-.56,3,3,0,0,0-.31-.22A1.28,1.28,0,0,0,49,4.9l-.11-.06a3.65,3.65,0,0,0-.53-.25,4.6,4.6,0,0,0-.85-.26h0l-.2,0a4.43,4.43,0,0,0-.51-.06h-.53a5.65,5.65,0,0,0-.58,0,7.88,7.88,0,0,0-1,.19,7.76,7.76,0,0,0-1.09.37l-.27.11-.49.23-.24.12-.35.19a17.3,17.3,0,0,0-1.79,1.18,27.86,27.86,0,0,0-4,3.76,48.59,48.59,0,0,0-5.26,7.36c-.25.41-.49.83-.72,1.24-.06.09-.11.19-.16.28C29.49,20.81,28.7,22.37,28,24c-.3.65-.6,1.3-.88,2s-.54,1.3-.8,2c-.19.5-.38,1-.56,1.49-.11.29-.22.58-.32.88s-.31.88-.45,1.32c-.47,1.37-.89,2.76-1.27,4.16-.34,1.23-.65,2.47-.93,3.71-.13.6-.27,1.2-.39,1.81-.41,2-.75,4.13-1,6.21q-.14,1.06-.24,2.13c0,.17,0,.33-.05.5-.18,2-.3,3.9-.34,5.85,0,.76,0,1.51,0,2.27s0,1.76.08,2.64h0c0,.11,0,.21,0,.32l.06,1c.1,1.35.24,2.7.44,4,.09.64.2,1.28.32,1.92.06.28.11.55.17.83.19.84.39,1.67.64,2.49.09.29.18.59.28.89s.21.6.32.9l.11.27a0,0,0,0,0,0,0A18,18,0,0,0,24,75.35c.1.19.21.38.32.56s.15.25.23.38.32.48.5.7a7.44,7.44,0,0,0,1.12,1.19l.1.09a5.56,5.56,0,0,0,1,.63,4.49,4.49,0,0,0,.77.29h0c.19,0,.39.09.58.12a5.41,5.41,0,0,1-.58-.12,3.83,3.83,0,0,1-.73-.29,4.73,4.73,0,0,1-1-.64l-.08-.07A7.57,7.57,0,0,1,25.09,77c-.17-.23-.34-.47-.49-.72s-.15-.23-.22-.34-.21-.38-.31-.57c-.25-.47-.47-1-.68-1.44l-.15-.39s0,0,0,0l-.1-.27-.3-.88c-.1-.31-.19-.63-.28-.94-.24-.83-.43-1.68-.59-2.52q-.09-.42-.15-.84c-.11-.62-.2-1.25-.28-1.88s-.13-1.11-.17-1.67c-.1-1.16-.15-2.32-.18-3.48v-.33c0-.83,0-1.67,0-2.51s.06-1.5.1-2.25q.18-2.88.59-5.74a2.23,2.23,0,0,1,0-.23c.1-.68.2-1.36.32-2,.47-2.74,1.09-5.45,1.82-8.12,0-.16.09-.32.13-.48.58-2,1.23-4.05,2-6,.12-.34.25-.69.39-1,.19-.5.38-1,.59-1.49.12-.31.25-.63.38-.94a.2.2,0,0,0,0-.08l.45-1c.36-.81.74-1.62,1.12-2.42.3-.62.61-1.24.93-1.85.61-1.19,1.26-2.36,1.93-3.51l.25-.42.63-1c.71-1.12,1.44-2.22,2.21-3.28a42.8,42.8,0,0,1,3.21-4,25,25,0,0,1,3.64-3.37,14.64,14.64,0,0,1,2-1.24l.1,0a4,4,0,0,1,.47-.21A6,6,0,0,1,46,6.94a2.93,2.93,0,0,1,1.75.3,4.1,4.1,0,0,1,1.4,1.36,9.77,9.77,0,0,1,1,2.08,18.26,18.26,0,0,1,.66,2.39c.17.83.3,1.67.41,2.53,0,.23,0,.46.07.69,0,.39.08.77.11,1.16s0,.49,0,.73c.1,1.74.11,3.49.07,5.25l0,.72c0,.39,0,.79-.05,1.19,0,.16,0,.34,0,.5q-.18,3.18-.56,6.34c0,.29-.07.59-.11.89l-.12.91c-.06.46-.12.92-.19,1.38q-.42,2.88-1,5.75c-.15.79-.3,1.57-.47,2.35l-.21,1c-.22,1-.46,2-.71,3q-.51,2.11-1.11,4.2a2.76,2.76,0,0,0-.08.27s0,0,0,.06l-.33,1.11c-.06.18-.11.37-.17.56L46,54.74l-.15.45c-.19.59-.39,1.18-.59,1.76l-.24.69-.16.45c-.2.56-.41,1.11-.62,1.66-.63,1.65-1.31,3.29-2.06,4.89s-1.53,3.19-2.41,4.72l-.45.77c-.27.45-.54.9-.82,1.34-.51.79-1,1.56-1.6,2.3l-.1.12c-.33.44-.67.87-1,1.28l-.55.62a16,16,0,0,1-1.57,1.51l-.12.1-.21.17-.11.08a9,9,0,0,1-2.1,1.26,6.92,6.92,0,0,1-.91.3,4.71,4.71,0,0,1-1.05.13,4.89,4.89,0,0,1-.54,0,4.89,4.89,0,0,0,.54,0,4.82,4.82,0,0,0,1.07-.13,5.56,5.56,0,0,0,.9-.29,9.56,9.56,0,0,0,2.13-1.26l.08-.06.24-.19.12-.11a19.64,19.64,0,0,0,2.16-2.12c.37-.42.73-.85,1.07-1.29l0-.06c.6-.78,1.17-1.58,1.72-2.4.31-.45.6-.91.88-1.37,1.06-1.7,2-3.46,2.92-5.25q1.51-3,2.81-6.2c.12-.28.23-.56.34-.84s.18-.44.26-.66c.17-.41.33-.83.49-1.25s.21-.57.32-.86l.54-1.48.25-.73c.13-.35.25-.71.37-1.07l.09-.28c.09-.26.18-.52.26-.78.54-1.63,1-3.27,1.49-4.93.09-.3.17-.59.25-.89,0,0,0,0,0-.05.14-.53.29-1.06.42-1.59,0-.12.06-.24.1-.36q1.08-4.23,1.88-8.55c0-.14.05-.28.08-.42s.09-.52.13-.78l0-.16c.22-1.33.42-2.65.59-4,.13-1,.25-2.09.34-3.15,0-.14,0-.28,0-.42.05-.61.1-1.22.14-1.83C53.82,21.72,53.86,19.9,53.8,18.06Z" transform="translate(1.83)"/><path class="cls-8" d="M41.48,54l-1,.89.29-.06,1.09-.31Zm-7-25.51c-1.52.4-3,.84-4.54,1.32q-.72.63-1.44,1.29l1.6,2.35c1.08-1,2.18-2,3.29-3,.93-.82,1.88-1.62,2.83-2.41Zm0,0c-1.52.4-3,.84-4.54,1.32q-.72.63-1.44,1.29l1.6,2.35c1.08-1,2.18-2,3.29-3,.93-.82,1.88-1.62,2.83-2.41Zm0,0c-1.52.4-3,.84-4.54,1.32q-.72.63-1.44,1.29l1.6,2.35c1.08-1,2.18-2,3.29-3,.93-.82,1.88-1.62,2.83-2.41Zm31.88-9c0-.26,0-.52-.07-.78l0-.21a6.34,6.34,0,0,0-.21-.86h0a5,5,0,0,0-.18-.5,1.54,1.54,0,0,1-.08-.19l-.09-.17a4.42,4.42,0,0,0-1.33-1.54l-.16-.11-.12-.08a5,5,0,0,0-1-.46l-.27-.1-.68-.17-.13,0a9.52,9.52,0,0,0-1.84-.15,20.9,20.9,0,0,0-5.26.88l-1.29.39c-.8.26-1.59.55-2.38.85-.58.23-1.17.47-1.75.72l-1.27.57c-1.08.5-2.14,1-3.19,1.59a72.14,72.14,0,0,0-7.93,4.92c-.4.28-.79.57-1.18.86l-.53.4-.53.4c-.59.45-1.17.91-1.75,1.38l-.48.39-1,.79c-.6.5-1.19,1-1.77,1.51s-1,.85-1.44,1.29l-.87.79-.82.77-.63.61c-.83.8-1.65,1.61-2.45,2.44q-1.89,2-3.69,4l-.09.1q-1.52,1.75-3,3.59l-.75,1c-.46.6-.92,1.21-1.36,1.83s-1,1.46-1.55,2.21c-1,1.52-2,3.09-2.92,4.71-.34.61-.67,1.23-1,1.85l-.31.63c-.28.59-.55,1.18-.81,1.79-.11.26-.22.53-.32.8-.34.88-.65,1.78-.91,2.7-.13.47-.24.93-.34,1.41l-.09.51a2.36,2.36,0,0,0,0,.28l0,.19c0,.16,0,.31-.06.47s0,.29,0,.44v0c0,.12,0,.24,0,.36,0,.3,0,.6,0,.91l0,.38c0,.3.06.6.11.9a8.87,8.87,0,0,0,.26,1c.07.17.13.35.21.52a5.52,5.52,0,0,0,.42.75,5.26,5.26,0,0,0,.45.58l0,0a4.88,4.88,0,0,0,1.18.95h0l.1,0a5.72,5.72,0,0,0,1.27.51l.51.11c.22,0,.44.07.67.09l.23,0a7.13,7.13,0,0,0,.92,0l.47,0h.19a12.93,12.93,0,0,0,1.41-.18,6.18,6.18,0,0,0,.62-.12L16,71H16q.73-.17,1.44-.39c.37-.11.73-.22,1.09-.35.59-.2,1.17-.42,1.74-.65l.76-.31.77-.34.14-.06.49-.23,1-.49c.8-.39,1.6-.8,2.38-1.22s1.56-.86,2.33-1.31q4.63-2.7,9-5.83c1.37-1,2.71-2,4-3l.87-.7.63-.52c.61-.49,1.21-1,1.81-1.51l.24-.22L45,53.6l.6-.54,1.13-1a.6.6,0,0,1,.08-.08l.37-.34,1-1c.63-.62,1.26-1.24,1.87-1.87s1-1.06,1.51-1.6l.66-.72c.07-.09.15-.17.23-.26l.78-.89a72.41,72.41,0,0,0,5.93-7.85l.24-.35c.12-.2.25-.4.38-.6a56.66,56.66,0,0,0,4.91-9.59.3.3,0,0,0,0-.1l.06-.15a23.49,23.49,0,0,0,1.42-5.37A12,12,0,0,0,66.33,19.51Zm-.43,1.75a15.93,15.93,0,0,1-.66,2.64,23.49,23.49,0,0,1-1,2.51l-.12.25a.61.61,0,0,1,0,.12c-.33.69-.69,1.36-1.07,2s-.91,1.55-1.39,2.31c-1,1.51-2,3-3.11,4.38l-.53.68-.3.39c-1.63,2.06-3.32,4-5.06,6-.33.38-.67.75-1,1.12-.12.14-.25.27-.37.4-.3.34-.6.67-.91,1l-.11.11-.5.54c-.55.59-1.11,1.18-1.67,1.76-1.26,1.32-2.54,2.61-3.84,3.89l-.74.73-.69.66-.41.39-.88.85-1,.89,0,0-.53.49-.88.8c-.9.81-1.82,1.61-2.74,2.39a72.73,72.73,0,0,1-8.58,6.27,49.54,49.54,0,0,1-4.62,2.55l-.94.44L21.8,68l-.16.07c-.29.13-.59.26-.9.38l-.73.28c-.57.22-1.14.42-1.73.6A19.88,19.88,0,0,1,16,70l-.21,0q-.63.12-1.26.18h-.08l-.2,0-.67,0h-.32A8.24,8.24,0,0,1,12,70.18a5.12,5.12,0,0,1-.78-.15h0a3.31,3.31,0,0,1-.42-.12A4.32,4.32,0,0,1,9.28,69h0l0,0s0,0,0,0h0A3.33,3.33,0,0,1,9,68.68l0,0a4.2,4.2,0,0,1-.77-1.81c0-.11,0-.21,0-.32s0-.16,0-.24,0-.31,0-.46,0-.35,0-.52,0-.16,0-.24,0-.13,0-.2a1.1,1.1,0,0,1,0-.18c0-.21,0-.42.09-.64a15.85,15.85,0,0,1,.65-2.5c.28-.83.61-1.65,1-2.45.19-.43.39-.85.6-1.28.41-.81.84-1.61,1.29-2.39.19-.35.39-.68.59-1,.91-1.52,1.9-3,2.93-4.45q.8-1.11,1.62-2.19l.2-.25c.45-.58.9-1.16,1.37-1.72s.82-1,1.24-1.5c.75-.89,1.52-1.76,2.3-2.62.12-.15.25-.29.38-.43.6-.65,1.19-1.3,1.8-1.93,1.33-1.4,2.69-2.78,4.08-4.12.39-.38.78-.76,1.18-1.13l.63-.6c1.08-1,2.18-2,3.29-3,.93-.82,1.88-1.62,2.83-2.41l.15-.12.63-.52.44-.36.43-.34.34-.28.54-.43.76-.6c.7-.55,1.4-1.08,2.1-1.61,1.42-1.06,2.84-2.1,4.31-3.07.88-.59,1.77-1.16,2.68-1.71.44-.27.89-.53,1.34-.78l.47-.27c.32-.18.65-.35,1-.52s.9-.46,1.36-.68.66-.31,1-.45.94-.4,1.42-.58A22.34,22.34,0,0,1,57.62,15a13.89,13.89,0,0,1,2.57-.4,7.94,7.94,0,0,1,1.29,0,7.62,7.62,0,0,1,.94.14l.19,0,.14,0a5.09,5.09,0,0,1,1,.4,4,4,0,0,1,1.2.94,4.2,4.2,0,0,1,.58.92,5.23,5.23,0,0,1,.41,1.23,2.34,2.34,0,0,1,0,.26,4.1,4.1,0,0,1,.06.49,8.29,8.29,0,0,1,0,.86A8.69,8.69,0,0,1,65.9,21.26ZM34.45,28.5c-1.52.4-3,.84-4.54,1.32q-.72.63-1.44,1.29l1.6,2.35c1.08-1,2.18-2,3.29-3,.93-.82,1.88-1.62,2.83-2.41Zm0,0c-1.52.4-3,.84-4.54,1.32q-.72.63-1.44,1.29l1.6,2.35c1.08-1,2.18-2,3.29-3,.93-.82,1.88-1.62,2.83-2.41Zm0,0c-1.52.4-3,.84-4.54,1.32q-.72.63-1.44,1.29l1.6,2.35c1.08-1,2.18-2,3.29-3,.93-.82,1.88-1.62,2.83-2.41Z" transform="translate(1.83)"/><path class="cls-9" d="M44.78,53.82l-.09-.11L44,52.78l-.21-.28-.3-.39-.69.66-.41.39-.88.85.42.52,0,0c.87-.19,1.73-.37,2.6-.54l.35-.08A1.71,1.71,0,0,1,44.78,53.82Zm1.61,2-.54-.67c-.19.59-.39,1.18-.59,1.76l.64.16q.93.24,1.86.45C47.3,57,46.84,56.43,46.39,55.86Zm-1.61-2-.09-.11L44,52.78l-.21-.28-.3-.39-.77-1q-3-4-5.93-8c-1-1.35-1.93-2.72-2.89-4.08S32,36.25,31,34.87l-1-1.41-.63.6c-.4.37-.79.75-1.18,1.13.23.39.46.77.7,1.15.89,1.44,1.81,2.86,2.74,4.27s1.89,2.8,2.85,4.18c2,2.76,4,5.47,6,8.11l.33.4.12.16c.44-.09.89-.19,1.32-.3l-.88.85.42.52,0,0c.87-.19,1.73-.37,2.6-.54l.35-.08A1.71,1.71,0,0,1,44.78,53.82Zm1.61,2-.54-.67c-.19.59-.39,1.18-.59,1.76l.64.16q.93.24,1.86.45C47.3,57,46.84,56.43,46.39,55.86Zm-1.61-2-.09-.11L44,52.78l-.21-.28-.3-.39-.77-1q-3-4-5.93-8c-1-1.35-1.93-2.72-2.89-4.08S32,36.25,31,34.87l-1-1.41-1.6-2.35L28,30.44l-.47-.7L27,29l-.73-1.1c-.19.5-.38,1-.56,1.49-.11.29-.22.58-.32.88l.52,1,.6,1.06c.07.14.16.28.24.42.48.85,1,1.69,1.48,2.52.23.39.46.77.7,1.15.89,1.44,1.81,2.86,2.74,4.27s1.89,2.8,2.85,4.18c2,2.76,4,5.47,6,8.11l.33.4.12.16c.44-.09.89-.19,1.32-.3l-.88.85.42.52,0,0c.87-.19,1.73-.37,2.6-.54l.35-.08A1.71,1.71,0,0,1,44.78,53.82Zm1.61,2-.54-.67c-.19.59-.39,1.18-.59,1.76l.64.16q.93.24,1.86.45C47.3,57,46.84,56.43,46.39,55.86Zm-1.7-2.15L44,52.78l-.21-.28-.3-.39-.77-1q-3-4-5.93-8c-1-1.35-1.93-2.72-2.89-4.08S32,36.25,31,34.87l-1-1.41-1.6-2.35L28,30.44l-.47-.7L27,29l-.73-1.1c-.19.5-.38,1-.56,1.49-.11.29-.22.58-.32.88l.52,1,.6,1.06c.07.14.16.28.24.42.48.85,1,1.69,1.48,2.52.23.39.46.77.7,1.15.89,1.44,1.81,2.86,2.74,4.27s1.89,2.8,2.85,4.18c2,2.76,4,5.47,6,8.11l.33.4.12.16c.44-.09.89-.19,1.32-.3l-.88.85.42.52,0,0c.87-.19,1.73-.37,2.6-.54l.35-.08a1.71,1.71,0,0,1-.11-.14ZM64,69.64l0-.21a0,0,0,0,1,0,0c0-.22-.09-.44-.14-.65l-.06-.22c0-.1-.06-.2-.08-.3l0-.1c-.09-.34-.2-.66-.31-1a1.59,1.59,0,0,1-.07-.2l0-.07c-.1-.28-.2-.56-.31-.84-.21-.52-.42-1-.65-1.55l-.26-.6c-.26-.58-.53-1.16-.81-1.73L61,61.7c-.38-.77-.76-1.53-1.16-2.29l-.1-.2c-1-2-2.16-4-3.27-6L56,52.24l-1.22-2.15,0-.05-.29-.5c-.63-1.11-1.28-2.22-1.92-3.33a2.75,2.75,0,0,1-.17-.29l-.9-1.52-.19-.32-.74-1.24-.08-.13-1-1.6c-1.1-1.78-2.23-3.55-3.4-5.29Q43.86,32.6,41.5,29.5c-.53-.69-1.07-1.38-1.61-2.06a1.83,1.83,0,0,1-.13-.16c-.26-.33-.52-.64-.78-1a3.88,3.88,0,0,0-.26-.31c-.53-.65-1.07-1.29-1.61-1.92q-1.77-2.06-3.65-4l-.6-.62c-.54-.56-1.1-1.13-1.65-1.68-1.62-1.61-3.27-3.17-5-4.68-.08-.08-.18-.15-.27-.23l-.83-.72c-.89-.76-1.81-1.51-2.77-2.2a16,16,0,0,0-2.12-1.32l-.14-.06a2.52,2.52,0,0,0-.34-.15,3.81,3.81,0,0,0-.7-.22l-.26,0h-.38a1.32,1.32,0,0,0-.47.13.41.41,0,0,1-.11.07l-.05,0a1.21,1.21,0,0,0-.4.57.08.08,0,0,0,0,.05,2.55,2.55,0,0,0-.13.61c0,.08,0,.16,0,.24s0,.26,0,.39,0,.46.07.68a17.62,17.62,0,0,0,.59,2.51c.5,1.63,1.12,3.22,1.77,4.8.42,1,.85,2,1.3,3,.24.54.49,1.09.75,1.63s.36.79.55,1.18.41.86.62,1.29c.36.72.71,1.44,1.08,2.15s.72,1.4,1.1,2.1c.11.22.23.44.35.66l.52,1,.6,1.06c.07.14.16.28.24.42.48.85,1,1.69,1.48,2.52.23.39.46.77.7,1.15.89,1.44,1.81,2.86,2.74,4.27s1.89,2.8,2.85,4.18c2,2.76,4,5.47,6,8.11l.33.4.12.16.44.55.42.52,0,0c.26.33.53.65.79,1l.76.92.87,1c.16.2.33.4.5.59l.44.52,1.77,2c.33.37.66.74,1,1.1s.51.57.78.86c.54.59,1.09,1.17,1.64,1.75s1,1,1.47,1.49l.31.31c.41.41.84.82,1.27,1.21l.57.52c.76.7,1.55,1.39,2.36,2,.51.4,1,.8,1.57,1.17l0,0,.13.09.09.06a15.85,15.85,0,0,0,1.48.91l.15.08.37.18.29.12.19.08a5.4,5.4,0,0,0,.86.25,2.75,2.75,0,0,0,.82,0l.29,0a2.16,2.16,0,0,0,.45-.19l.18-.14A1.75,1.75,0,0,0,63.8,72a1.3,1.3,0,0,0,.14-.32l.06-.18a3,3,0,0,0,.1-.65A6.11,6.11,0,0,0,64,69.64Zm-1.23,1s0,.11,0,.16l0,.14a1.46,1.46,0,0,1-.08.27.35.35,0,0,1-.14.18.36.36,0,0,1-.21,0h-.1l-.24,0,0,0a3.2,3.2,0,0,1-.6-.23.8.8,0,0,1-.16-.08l-.19-.1a10.15,10.15,0,0,1-.86-.54l-.35-.26-.14-.1-.56-.43-.71-.6c-.37-.32-.74-.66-1.1-1s-1-.95-1.49-1.44l-.27-.27c-.44-.45-.88-.91-1.31-1.37-1.55-1.64-3.06-3.34-4.54-5.07-.25-.31-.51-.61-.77-.92l-.14-.17-.38-.46-.6-.73c-.46-.56-.92-1.13-1.37-1.7l-.54-.67c-.32-.41-.64-.81-1-1.23a1.71,1.71,0,0,1-.11-.14l-.09-.11L44,52.78l-.21-.28-.3-.39-.77-1q-3-4-5.93-8c-1-1.35-1.93-2.72-2.89-4.08S32,36.25,31,34.87l-1-1.41-1.6-2.35L28,30.44l-.47-.7L27,29l-.73-1.1c-.29-.44-.58-.88-.86-1.32s-.43-.66-.64-1c-.53-.82-1.06-1.65-1.57-2.49-.16-.26-.31-.52-.47-.77l0-.08c-.42-.69-.83-1.39-1.23-2.09L21.42,20c-.39-.69-.77-1.38-1.12-2.08s-.75-1.51-1.1-2.27-.66-1.55-.94-2.34a14.81,14.81,0,0,1-.66-2.43,7.47,7.47,0,0,1-.08-.8,2.67,2.67,0,0,1,0-.4v0a2.71,2.71,0,0,1,.12-.58,1.35,1.35,0,0,1,.19-.33A.46.46,0,0,1,18,8.6a.75.75,0,0,1,.35-.16l.15,0a2.2,2.2,0,0,1,.57.05,3.31,3.31,0,0,1,.42.12l.36.14.33.16a13.66,13.66,0,0,1,2,1.36c.64.5,1.27,1,1.87,1.61l.82.79.83.84.11.12c.58.6,1.14,1.21,1.69,1.83s1.08,1.26,1.62,1.9S30,18.45,30.49,19s1,1.26,1.49,1.9c.09.1.17.21.26.32,1.06,1.36,2.11,2.74,3.16,4.12.19.25.37.5.56.74l.49.65c.17.23.34.46.52.68l.29.39.37.49.66.88,6,8c1.55,2.09,3.12,4.18,4.65,6.29l1,1.38.25.35.1.14c.43.62.87,1.24,1.29,1.86.17.23.32.46.48.7q.69,1,1.35,2l.24.37.1.16c.41.64.82,1.27,1.21,1.92.27.43.53.86.79,1.29.86,1.44,1.69,2.9,2.47,4.39.2.38.4.76.59,1.15l.12.22c.14.29.29.58.43.88.3.6.59,1.2.86,1.81l.21.47c.26.57.5,1.15.73,1.73.32.8.62,1.6.88,2.41.06.19.11.37.17.55l.15.54a1.17,1.17,0,0,1,0,.2c.08.31.16.62.22.94s.07.43.1.64a.15.15,0,0,0,0,.07s0,.1,0,.16A4.21,4.21,0,0,1,62.79,70.59Zm-18-16.77-.09-.11L44,52.78l-.21-.28-.3-.39-.77-1q-3-4-5.93-8c-1-1.35-1.93-2.72-2.89-4.08S32,36.25,31,34.87l-1-1.41-1.6-2.35L28,30.44l-.47-.7L27,29l-.73-1.1c-.19.5-.38,1-.56,1.49-.11.29-.22.58-.32.88l.52,1,.6,1.06c.07.14.16.28.24.42.48.85,1,1.69,1.48,2.52.23.39.46.77.7,1.15.89,1.44,1.81,2.86,2.74,4.27s1.89,2.8,2.85,4.18c2,2.76,4,5.47,6,8.11l.33.4.12.16c.44-.09.89-.19,1.32-.3l-.88.85.42.52,0,0c.87-.19,1.73-.37,2.6-.54l.35-.08A1.71,1.71,0,0,1,44.78,53.82Zm1.61,2-.54-.67c-.19.59-.39,1.18-.59,1.76l.64.16q.93.24,1.86.45C47.3,57,46.84,56.43,46.39,55.86Zm-1.61-2-.09-.11L44,52.78l-.21-.28-.3-.39-.77-1q-3-4-5.93-8c-1-1.35-1.93-2.72-2.89-4.08S32,36.25,31,34.87l-1-1.41-.63.6c-.4.37-.79.75-1.18,1.13.23.39.46.77.7,1.15.89,1.44,1.81,2.86,2.74,4.27s1.89,2.8,2.85,4.18c2,2.76,4,5.47,6,8.11l.33.4.12.16c.44-.09.89-.19,1.32-.3l-.88.85.42.52,0,0c.87-.19,1.73-.37,2.6-.54l.35-.08A1.71,1.71,0,0,1,44.78,53.82Zm1.61,2-.54-.67c-.19.59-.39,1.18-.59,1.76l.64.16q.93.24,1.86.45C47.3,57,46.84,56.43,46.39,55.86Zm-1.61-2-.09-.11L44,52.78l-.21-.28-.3-.39-.77-1q-3-4-5.93-8c-1-1.35-1.93-2.72-2.89-4.08S32,36.25,31,34.87l-1-1.41-.63.6c-.4.37-.79.75-1.18,1.13.23.39.46.77.7,1.15.89,1.44,1.81,2.86,2.74,4.27s1.89,2.8,2.85,4.18c2,2.76,4,5.47,6,8.11l.33.4.12.16c.44-.09.89-.19,1.32-.3l-.88.85.42.52,0,0c.87-.19,1.73-.37,2.6-.54l.35-.08A1.71,1.71,0,0,1,44.78,53.82Zm1.61,2-.54-.67c-.19.59-.39,1.18-.59,1.76l.64.16q.93.24,1.86.45C47.3,57,46.84,56.43,46.39,55.86Z" transform="translate(1.83)"/><path class="cls-10" d="M52.67,34c0-.28,0-.57-.05-.86,0-.06,0-.12,0-.18l-.09-1.22c-.16-2-.41-3.94-.75-5.88l-.09-.49c-.07-.4-.15-.8-.23-1.19-.28-1.37-.61-2.72-1-4.07-.18-.62-.37-1.23-.56-1.84-.13-.41-.27-.82-.41-1.23a39,39,0,0,0-3.62-7.7,22.54,22.54,0,0,0-1.39-2L44.18,7c-.31-.37-.63-.73-1-1.07s-.41-.41-.62-.6-.29-.25-.44-.37L41.9,4.7l-.24-.17a9.25,9.25,0,0,0-1.3-.83l-.63-.29A8.13,8.13,0,0,0,38.65,3L38.29,3l-.42-.08h0a7.4,7.4,0,0,0-.81-.08H37a4.68,4.68,0,0,0-.53,0,8,8,0,0,0-.84.08L35.16,3l-.37.09c-.2.05-.39.11-.59.18l-.66.26-.32.14-.32.17c-.21.1-.42.23-.62.35s-.41.25-.6.39l-.13.09-.27.19a19.09,19.09,0,0,0-1.8,1.57l-.5.52c-.16.18-.33.35-.48.53s-.32.37-.47.56-.31.37-.46.56c-.59.76-1.15,1.56-1.68,2.38l-.75,1.2-.28.5c-.16.27-.31.54-.46.81a52.53,52.53,0,0,0-2.5,5.31L21.42,20c-.16.41-.31.82-.45,1.24s-.35,1-.51,1.49c-.25.77-.49,1.55-.71,2.33q-.7,2.47-1.21,5-.21,1.05-.39,2.1c0,.27-.1.54-.14.81-.09.59-.18,1.18-.26,1.76-.06.39-.11.78-.16,1.17-.25,2-.43,3.92-.55,5.89,0,.55-.06,1.1-.08,1.65s0,.94,0,1.42q0,1.27,0,2.55v.36q0,2.94.26,5.86c.06.76.14,1.52.22,2.28s.18,1.59.3,2.38c.18,1.28.39,2.55.64,3.82a1.77,1.77,0,0,0,0,.2c.2,1,.43,2,.68,3,.29,1.16.62,2.31,1,3.45l.27.82c.17.47.34,1,.52,1.42.11.29.22.58.34.87s.34.81.52,1.22a1.47,1.47,0,0,1,.1.22c0,.07.07.15.11.22a2,2,0,0,0,.1.21q.24.51.51,1c.1.2.21.4.33.61s.38.67.59,1,.32.52.49.78l.21.3c.14.2.28.41.43.61.9.31,1.81.59,2.73.83a4.49,4.49,0,0,0,.77.29h0l-.13-.13c-.15-.15-.29-.31-.43-.47l0,0c-.28-.32-.54-.66-.8-1s-.33-.45-.49-.69-.22-.33-.32-.5l-.33-.52-.33-.59c-.25-.47-.5-1-.73-1.43l-.18-.39c-.05-.1-.09-.21-.14-.31s-.15-.35-.23-.52c-.34-.81-.66-1.62-.95-2.45-.17-.5-.33-1-.49-1.5-.08-.26-.16-.52-.23-.79q-.47-1.56-.81-3.15a2.25,2.25,0,0,1,0-.22c-.17-.78-.33-1.56-.47-2.34-.05-.31-.11-.63-.16-.94,0-.1,0-.2,0-.29-.14-.9-.27-1.8-.38-2.7s-.17-1.52-.24-2.28-.15-1.69-.2-2.54q-.13-2.26-.18-4.53c0-.79,0-1.59,0-2.38s0-1.47,0-2.2l.09-2.35c0-.7.08-1.4.13-2.1.08-1.2.19-2.41.31-3.61.1-.95.22-1.9.34-2.84s.23-1.58.35-2.36c0-.16,0-.32.08-.48.15-.95.31-1.89.49-2.82s.33-1.67.51-2.5c0-.1.05-.2.07-.31.07-.29.13-.59.2-.88s.17-.71.26-1.07.12-.5.19-.75c.24-.95.5-1.9.79-2.84A49.15,49.15,0,0,1,25.45,14l.24-.53c.09-.21.19-.42.28-.62A29.1,29.1,0,0,1,28.13,9a19.47,19.47,0,0,1,1.72-2.23,13.56,13.56,0,0,1,2-1.9l.23-.17.26-.18.08-.06.59-.35c.2-.12.41-.22.61-.32l.55-.23.09,0A7.45,7.45,0,0,1,37,3.06a7.1,7.1,0,0,1,2.52.56l.13.06a9.34,9.34,0,0,1,1.2.66l.16.11.24.17c.24.18.48.37.7.57l.31.28A14.8,14.8,0,0,1,44,7.55a19.09,19.09,0,0,1,1.3,2.12,26.37,26.37,0,0,1,1.21,2.58c.35.88.67,1.79,1,2.69s.52,1.76.74,2.64c.12.48.23,1,.34,1.44l.3,1.48c.31,1.61.56,3.23.77,4.86,0,.19,0,.39.07.58.23,2,.4,4,.53,5.95h0l.06,1c0,.83.07,1.65.1,2.48q.12,3.68,0,7.35c0,.16,0,.33,0,.49v.18c0,.57,0,1.13-.07,1.7,0,.08,0,.17,0,.25-.06,1.15-.13,2.31-.22,3.46-.06.74-.12,1.48-.2,2.22,0,0,0,.07,0,.1l-.09.87c0,.38-.09.75-.14,1.12q-.1.88-.24,1.77c-.14,1-.3,2-.49,2.94,0,.19-.06.37-.1.56s0,.25-.08.38c-.2,1-.42,2-.67,3-.37,1.47-.8,2.92-1.28,4.35-.23.65-.46,1.3-.71,1.94s-.5,1.24-.76,1.84-.47,1-.71,1.52c-.34.7-.71,1.38-1.09,2l-.27.46c-.22.38-.46.75-.7,1.12s-.57.83-.87,1.23-.54.71-.83,1l0,0-.14.16c-.26.3-.52.58-.8.86a14.25,14.25,0,0,1-1.07,1l-.29.24-.4.31-.28.19.94,0,.89-.07.18-.18.35-.36.22-.22.15-.16A22,22,0,0,0,42,77.33l.1-.13,0,0,.27-.37c.43-.61.83-1.23,1.21-1.87s.63-1.07.92-1.63.54-1,.79-1.54c.34-.7.67-1.42,1-2.15s.54-1.28.8-1.93c.17-.43.33-.86.49-1.29.46-1.25.88-2.52,1.28-3.79.28-.92.55-1.84.8-2.76.12-.43.24-.86.35-1.28l.12-.5q.38-1.45.69-2.91c.17-.77.33-1.53.47-2.3.1-.51.19-1,.28-1.53l.12-.68a.59.59,0,0,1,0-.13c.14-.87.27-1.74.38-2.62.07-.48.12-1,.18-1.42l.06-.55c.08-.8.16-1.6.22-2.41l.06-.95A76.89,76.89,0,0,0,52.67,34Z" transform="translate(1.83)"/><path class="cls-11" d="M72.24,26.17c-.1-.3-.24-.58-.35-.87l-.36-.87-.09-.22L71.33,24l-.2-.43-.4-.85-.1-.21-.11-.21-.22-.42L69.85,21l-.23-.41-.24-.4-.48-.82a39.54,39.54,0,0,0-4.61-6c-.64-.67-1.29-1.33-2-2a37,37,0,0,0-3.77-3.06l-.79-.54-.4-.27-.41-.26-.82-.5-.41-.25-.2-.12-.21-.12-.85-.45L54,5.61l-.22-.11-.21-.1L52.73,5c-.29-.13-.58-.28-.88-.39a38.28,38.28,0,0,0-15-3.11,38.79,38.79,0,0,0-36,24.43A38.29,38.29,0,0,0-1.82,40.85a39.76,39.76,0,0,0,.7,6.53c0,.25.09.49.14.73l.06.26,0,.23h0l.17.69,0,.2h0l.18.7c.07.31.18.61.26.91L.06,52c.08.3.2.6.3.89l.3.87v0c.1.3.23.59.34.88l.36.88c.33.78.69,1.56,1.08,2.32A40.64,40.64,0,0,0,6.3,64.06l.15.19.37.48c.42.53.85,1,1.29,1.55s.63.71,1,1.06l.14.15.5.52.12.12c.25.26.51.51.77.76l0,0c.45.44.92.86,1.39,1.27s1,.82,1.45,1.21c.87.69,1.76,1.34,2.68,2l.14.09A40.17,40.17,0,0,0,22,76.61c.48.22,1,.42,1.46.61l.26.11.34.13c.69.26,1.38.5,2.09.72h0c.4.13.8.25,1.21.36.91.25,1.84.47,2.77.66h0c1.07.21,2.15.38,3.23.5h.16c1.07.12,2.15.18,3.23.2h1.92l1.08-.07.83,0,.48,0,.48,0,.95-.12.24,0,.24,0,.47-.08.94-.16c.77-.15,1.52-.32,2.27-.52l.35-.09c.79-.22,1.58-.46,2.35-.72S51,77.34,51.81,77c.45-.19.89-.39,1.34-.6s.82-.4,1.23-.61a36.47,36.47,0,0,0,5.54-3.55c.48-.37.95-.75,1.41-1.15s1-.85,1.44-1.3l.42-.4c.21-.2.41-.41.61-.61a.08.08,0,0,1,0,0l.43-.46c.46-.49.9-1,1.33-1.5h0a38.92,38.92,0,0,0,3.27-4.51l.48-.81.24-.41c.08-.14.16-.27.23-.41l.45-.84.22-.41.11-.21.1-.21.28-.6.12-.26.19-.39,0,0,.1-.22.09-.22.35-.85h0c.12-.29.25-.57.35-.87.19-.5.37-1,.54-1.5s.38-1.17.55-1.76a0,0,0,0,0,0,0c.05-.16.09-.32.14-.48.14-.51.27-1,.39-1.54a41.39,41.39,0,0,0,1.07-8.51c0-.28,0-.56,0-.84A40.82,40.82,0,0,0,72.24,26.17Zm-39,51.49h0c-.89-.06-1.78-.16-2.67-.29l-.93-.14c-.64-.12-1.28-.24-1.92-.39l-.4-.09-1-.25-.48-.13c-.48-.13-1-.28-1.44-.43l0,0c-.52-.16-1-.34-1.53-.53l-.22-.09a34.71,34.71,0,0,1-3.84-1.73l-.25-.13a36.16,36.16,0,0,1-3.62-2.22q-.68-.46-1.32-1l-.78-.61,0,0c-.55-.45-1.08-.91-1.6-1.4L11,68.08l-.61-.58,0,0-.06-.06c-.39-.39-.78-.78-1.15-1.19h0c-.35-.38-.69-.77-1-1.17s-.53-.63-.78-1-.51-.66-.75-1l-.13-.18a36.06,36.06,0,0,1-3.27-5.43c-.12-.26-.24-.51-.35-.77-.23-.5-.45-1-.66-1.52L2.07,55c-.4-1-.75-2-1-3.08H1c0-.08-.05-.16-.07-.23A36.68,36.68,0,0,1-.18,45.88c-.07-.57-.12-1.15-.15-1.72-.08-1.11-.1-2.21-.08-3.31a38.22,38.22,0,0,1,.89-7.24l0-.23.06-.22.11-.44.16-.6.07-.28a3.62,3.62,0,0,1,.13-.47l.12-.4.27-.87c.08-.29.2-.57.3-.86l.3-.85c.1-.29.23-.57.34-.85l.35-.84c.23-.51.46-1,.72-1.54s.54-1.07.82-1.6a37.47,37.47,0,0,1,6.6-8.71,36.18,36.18,0,0,1,6.37-5h0l.28-.17h0c.63-.38,1.27-.75,1.92-1.09l.33-.17,0,0,.31-.16c.89-.45,1.8-.86,2.72-1.24a37.69,37.69,0,0,1,8.45-2.32l.27,0,.57-.08.26,0a37,37,0,0,1,4.46-.29A38.33,38.33,0,0,1,41,4.45l.24,0,.43,0,.24,0c.48.06,1,.13,1.42.21l.27.05.4.07a36.84,36.84,0,0,1,6.9,2l.29.11.23.1a37.18,37.18,0,0,1,4.48,2.2,38.37,38.37,0,0,1,5.17,3.53l1.09.91.46.41.47.43,0,0c.21.19.42.39.62.6.62.59,1.21,1.22,1.78,1.86.14.15.28.3.41.46l.11.13h0l.24.28c.58.69,1.13,1.4,1.66,2.13l.52.75.26.38a3.22,3.22,0,0,1,.25.39l.49.78.24.39.12.19.12.21.45.8.22.41.11.2.1.2.4.83c.14.28.28.56.4.84A33.89,33.89,0,0,1,73,30.23a0,0,0,0,1,0,0c.29.92.54,1.85.76,2.79h0l.09.41.18.91.08.46,0,.23,0,.23.13.92.06.46c0,.15,0,.3,0,.46.06.61.11,1.23.15,1.85l0,1.86,0,1.86c0,.61-.09,1.23-.14,1.85,0,.15,0,.31,0,.46l-.06.46-.13.92,0,.23,0,.23-.09.45-.18.92c-.09.46-.2.93-.32,1.39l-.21.8a0,0,0,0,0,0,0l-.24.8v.06c-.2.65-.42,1.29-.66,1.93v0c-.24.65-.51,1.29-.79,1.91l0,.09c-.12.29-.26.56-.4.84l-.4.83-.1.21-.09.17,0,0h0l-.23.4-.44.81-.11.2-.13.2-.24.39-.27.44-.22.34a4.25,4.25,0,0,1-.25.39l-.26.37-.52.76-.26.35A36,36,0,0,1,64,66.28l-.69.67-.19.18-.31.29-.41.37-.4.35c-.46.4-.92.78-1.4,1.15-.31.25-.63.49-.95.73-.51.38-1,.74-1.56,1.09-.37.25-.75.49-1.13.73a38.24,38.24,0,0,1-4.6,2.45c-.46.21-.93.41-1.41.61-.76.31-1.54.59-2.32.85s-1.61.51-2.42.72h0a37.67,37.67,0,0,1-4.2.86q-.66.11-1.32.18c-.9.1-1.8.18-2.7.22-.38,0-.75,0-1.13,0-.59,0-1.19,0-1.78,0S33.85,77.7,33.25,77.66Z" transform="translate(1.83)"/><path class="cls-12" d="M74.75,42.71c0,.62-.1,1.24-.14,1.86,0,.16,0,.31,0,.46l-.07.47-.12.92a1.85,1.85,0,0,1,0,.23l0,.23-.09.46-.17.91c-.11.52-.23,1-.36,1.54s-.21.78-.32,1.17c0,0,0,0,0,0,0,.15-.08.3-.13.45s0,0,0,.07v0q-.2.63-.42,1.26v0q-.37,1.06-.81,2.1l-.18.41c-.27.62-.56,1.22-.87,1.82l0,0c-.4.79-.83,1.56-1.3,2.32-.35.58-.73,1.16-1.12,1.72l-.36.52A37.13,37.13,0,0,1,64,66.51l-.66.64-.13.11c-.15.15-.31.3-.48.44l-.32.29-.21.19c-.48.4-1,.8-1.45,1.18-.33.26-.66.52-1,.76-.52.38-1,.74-1.57,1.08l-.48.32a39.31,39.31,0,0,1-4.07,2.25l-1.23.56q-.73.32-1.47.6c-.77.3-1.55.57-2.34.82a38.73,38.73,0,0,1-4.75,1.17c-.59.11-1.18.2-1.77.28-.43.06-.85.11-1.28.15-.85.09-1.69.14-2.54.17-.48,0-1,0-1.43,0l-1.06,0c-.74,0-1.48-.06-2.21-.12h0a36.93,36.93,0,0,1-3.92-.54l-.69-.14-.44-.09-1.21-.29c-.53-.14-1.06-.28-1.58-.44l-.2-.06c-.47-.15-.95-.31-1.42-.48H24l-1.26-.47-.28-.11c-.9-.37-1.79-.76-2.67-1.19a3.18,3.18,0,0,0-.32-.16,35.65,35.65,0,0,1-3.18-1.81l-.81-.52c-.43-.28-.85-.58-1.27-.88l-.52-.39-.06,0-.05,0c-.66-.5-1.31-1-1.94-1.57l-1-.93v0l-.07-.06c-.43-.4-.85-.82-1.27-1.25h0l0,0,0,0h0L9,65.62l0,0c-.28-.3-.56-.61-.83-.92-.53-.6-1-1.21-1.53-1.84l-.2-.26-.68-.93a37.48,37.48,0,0,1-2.56-4.14c-.17-.34-.35-.68-.51-1s-.39-.81-.58-1.23c0-.13-.11-.26-.16-.38a33.73,33.73,0,0,1-1.3-3.52A35.3,35.3,0,0,1-.49,46.57c-.09-.5-.16-1-.22-1.52-.12-1-.21-2-.25-3,0-.4,0-.8,0-1.2a38.12,38.12,0,0,1,.5-6.32A38.63,38.63,0,0,1,.65,29.66h0c.25-.82.52-1.63.83-2.43.11-.29.23-.59.35-.89.21-.5.42-1,.65-1.49A38,38,0,0,1,10,14c.52-.51,1.05-1,1.6-1.49A37.08,37.08,0,0,1,17.85,8L18,8A39.54,39.54,0,0,1,22.34,5.8,37.84,37.84,0,0,1,34.79,3l.37,0c.56,0,1.12,0,1.68,0s1,0,1.45,0h.36a38.11,38.11,0,0,1,7.6,1.13l.53.14c.75.2,1.48.42,2.21.67l.56.19q.91.33,1.8.69A38.19,38.19,0,0,1,63.67,14l.51.52c.54.56,1.07,1.14,1.58,1.74a38.29,38.29,0,0,1,5,7.53c.42.82.8,1.67,1.16,2.52a37.24,37.24,0,0,1,1.68,5s0,0,0,0c.06.2.11.41.16.61v0h0a37.61,37.61,0,0,1,.94,6.15h0l0,.47,0-.39a37.92,37.92,0,0,0-2.78-12,38,38,0,0,0-6.26-10.21c-.43-.49-.87-1-1.33-1.46-.21-.23-.42-.45-.64-.66A38,38,0,0,0,51.39,5.7c-.71-.29-1.43-.57-2.15-.82l-.89-.29-.85-.26h0l-.81-.22a38.13,38.13,0,0,0-8.81-1.3H36.45l-.84,0A38.14,38.14,0,0,0,22.29,5.68a37.39,37.39,0,0,0-6.51,3.49,38.14,38.14,0,0,0-13.57,16c-.18.39-.35.77-.51,1.16-.4.95-.76,1.93-1.08,2.91A39.12,39.12,0,0,0-.49,33.41a39.53,39.53,0,0,0-.76,7.44c0,.23,0,.47,0,.7A39,39,0,0,0-1,45.88s0,.1,0,.15c0,.42.11.85.18,1.27.16,1,.37,2.08.61,3.11C.14,51.63.49,52.83.9,54c.17.5.35,1,.55,1.5.3.8.64,1.59,1,2.36a40.21,40.21,0,0,0,2.62,4.77c.43.67.88,1.32,1.36,2,.33.46.67.9,1,1.34l.47.57.26.32c.41.48.84,1,1.28,1.42l.15.16h0c.52.55,1.06,1.08,1.62,1.6h0c.51.48,1,.94,1.57,1.39.78.64,1.57,1.26,2.39,1.84h0l.12.08A37.79,37.79,0,0,0,21.87,77l.24.11.61.25.26.11,1.55.58c.9.31,1.81.59,2.73.83h0l.6.16,1.25.28h0l.95.18.47.08.24,0,.24,0,.91.12.14,0c.29,0,.57.08.86.1.64,0,1.28.11,1.92.15l1.92,0,1,0,.94,0,.75-.06h.14l1-.09.48,0,.47-.06,1-.14.24,0,.23,0,.48-.09.94-.18c.85-.18,1.69-.39,2.51-.63l.32-.09c.71-.21,1.42-.44,2.12-.69s1.58-.61,2.36-1c.46-.2.92-.42,1.37-.64s.82-.41,1.22-.63a37.37,37.37,0,0,0,4-2.52c.45-.33.9-.66,1.34-1s.94-.76,1.4-1.15,1.06-1,1.57-1.44h0c.35-.34.69-.68,1-1l.22-.22.14-.15.69-.76a40.29,40.29,0,0,0,3.89-5.23,38.25,38.25,0,0,0,2-3.54.83.83,0,0,0,.07-.13c.3-.61.58-1.24.85-1.86v0c.16-.38.32-.77.47-1.16l.42-1.13c.28-.79.54-1.6.76-2.41,0,0,0,0,0,0s.06-.19.08-.29c.15-.54.29-1.08.41-1.62a40.08,40.08,0,0,0,1-9.13Z" transform="translate(1.83)"/><path class="cls-13" d="M74.92,41.69c0-1.14-.09-2.29-.21-3.43v-.08h0a44.5,44.5,0,0,0-2.46-10.81c-.1-.31-.24-.61-.35-.91l-.36-.92-.09-.22-.11-.23-.2-.44-.38-.85,0-.05-.1-.22-.11-.22-.22-.44,0-.06L69.85,22c-.07-.15-.15-.29-.23-.44l-.24-.42-.48-.86A40.89,40.89,0,0,0,64.29,14c-.64-.71-1.29-1.4-2-2.06a38.13,38.13,0,0,0-9-5.91A37.35,37.35,0,0,0,39.26,2.41,38.07,38.07,0,0,0,32,2.72,36.46,36.46,0,0,0,25,4.44a37.62,37.62,0,0,0-6.6,3.06c-.89.52-1.75,1.08-2.59,1.67a38.34,38.34,0,0,0-3.35,2.63l-.79.73A39.86,39.86,0,0,0,3.36,23.45c-.54,1.05-1,2.12-1.49,3.21S1,29,.63,30.13a41,41,0,0,0-1.11,4.4c-.2,1.06-.37,2.14-.49,3.22-.14,1.26-.23,2.53-.27,3.8s0,2.48,0,3.72c.05.92.14,1.84.25,2.76,0,0,0,.09,0,.14l.06.43h0A31.94,31.94,0,0,0,0,52.71l.12.42a27.37,27.37,0,0,0,2.56,6,2.54,2.54,0,0,0,.16.28l.11.2a28.19,28.19,0,0,0,2.13,3h0c.39.48.79,1,1.21,1.4l.15.16c.38.4.77.78,1.17,1.16l.47.44a26.32,26.32,0,0,0,2.18,1.77h0c.28.21.56.41.85.6a26.4,26.4,0,0,0,2.42,1.51l0,0c.28.16.55.31.83.45.52.28,1.05.54,1.58.79a38.71,38.71,0,0,0,4.21,1.66l1.44.46.66.18c.26.08.52.14.78.21l.07,0,.07,0,1.19.29a56.36,56.36,0,0,0,10,1.31l1.33,0h.08c1.94,0,3.87,0,5.81-.1l.89-.06c.35,0,.69,0,1-.09,1.76-.16,3.52-.41,5.26-.74a45.78,45.78,0,0,0,7-2l1-.4.78-.32.57-.26c.62-.27,1.23-.57,1.83-.88.83-.43,1.64-.9,2.43-1.4l.1,0,1.05-.7,1.13-.83c.26-.2.52-.4.77-.61h0c.72-.59,1.41-1.22,2.07-1.88.24-.24.47-.48.7-.73a.46.46,0,0,0,.07-.07,25.47,25.47,0,0,0,2.3-2.86c.19-.27.37-.54.55-.82l0,0,.1-.22.09-.23.36-.91c.11-.31.25-.61.35-.92.19-.52.37-1,.54-1.57.43-1.32.79-2.65,1.09-4a45,45,0,0,0,1.08-9.81C74.93,42.39,74.93,42,74.92,41.69ZM55.26,70.44a42.26,42.26,0,0,1-6.72,2.11c-1.33.31-2.67.56-4,.75l-1,.14c-.65.08-1.31.15-2,.21-1.54.14-3.09.22-4.64.24H36.8c-.77,0-1.55,0-2.32,0A56.35,56.35,0,0,1,27,73.2c-.48-.07-1-.16-1.42-.25s-1.16-.22-1.73-.35l-1.06-.26-.09,0c-.53-.14-1.06-.28-1.59-.44l-.64-.19c-1-.33-2.05-.69-3.05-1.1-.5-.2-1-.41-1.47-.63-.69-.32-1.37-.65-2-1A29.87,29.87,0,0,1,10.85,67h0c-.63-.44-1.24-.91-1.82-1.4l-.88-.76s0,0,0,0c-.26-.23-.51-.47-.76-.71s-.53-.53-.78-.8-.66-.72-1-1.09A26.52,26.52,0,0,1,1,54.32H1L.92,54c-.17-.49-.34-1-.48-1.48A31.73,31.73,0,0,1-.69,47.08c-.07-.61-.13-1.22-.17-1.83-.07-1.07-.11-2.13-.1-3.2a37.78,37.78,0,0,1,.29-4.26A40.88,40.88,0,0,1,.68,31.28a41.67,41.67,0,0,1,2.1-5.59c.32-.68.65-1.35,1-2a39.22,39.22,0,0,1,9.07-11.36A36.62,36.62,0,0,1,17.38,9l.45-.28.47-.28.51-.3A36.28,36.28,0,0,1,33.22,3.63l1-.07a34.49,34.49,0,0,1,5,0l.31,0,.86.08a37.15,37.15,0,0,1,4.32.75c.48.12,1,.24,1.44.38a34.59,34.59,0,0,1,4.72,1.72c.62.27,1.23.57,1.84.88a36.85,36.85,0,0,1,3.21,1.88,36.23,36.23,0,0,1,5.17,4.08q.49.45,1,.93l.4.41c.46.48.91,1,1.35,1.48.79.91,1.54,1.86,2.24,2.84l.32.46a40.4,40.4,0,0,1,4.69,9c.16.45.32.91.47,1.37l0,0a42.32,42.32,0,0,1,1.6,6.94v0a41.67,41.67,0,0,1,.4,5.8,35.71,35.71,0,0,1-.68,7.17c0,.1,0,.2-.07.3a.06.06,0,0,1,0,0c0,.2-.08.41-.13.62-.2.84-.43,1.68-.7,2.5a27.45,27.45,0,0,1-1.33,3.28c-.15.32-.31.63-.47.94l0,0c-.39.72-.8,1.42-1.25,2.1-.12.19-.24.37-.37.55a25.61,25.61,0,0,1-1.77,2.24A26.39,26.39,0,0,1,64.23,65c-.42.36-.84.71-1.28,1.05s-.59.45-.89.66l-.61.43A30.12,30.12,0,0,1,58.36,69q-.93.49-1.89.93Z" transform="translate(1.83)"/><circle class="cls-14" cx="28.69" cy="44.58" r="1.43"/><circle class="cls-15" cx="43.46" cy="14.55" r="0.86"/><circle class="cls-16" cx="63.52" cy="31.45" r="2.38"/><circle class="cls-17" cx="65.75" cy="45.3" r="1.19"/><circle class="cls-18" cx="12.36" cy="24.24" r="2.51"/><circle class="cls-19" cx="22.01" cy="65.26" r="2.14"/></g><path class="cls-20" d="M16,69.56a7.47,7.47,0,0,0-2-3.5,4,4,0,0,0-.37-.35l-.37-.33-.73-.66-.37-.33c-.12-.11-.23-.23-.35-.35l-.7-.69A36.15,36.15,0,0,1,2.87,50.07a35.36,35.36,0,0,1-1.75-7.65,34.05,34.05,0,0,1-.24-3.91c0-.66,0-1.31,0-2l0-.49,0-.49.08-1a34.51,34.51,0,0,1,1.61-7.65A36.31,36.31,0,0,1,5.9,19.85,35.61,35.61,0,0,1,16.51,8.61,31.77,31.77,0,0,1,23.36,5a32,32,0,0,1,7.51-1.69c.63-.09,1.27-.13,1.9-.18l.47-.05.48,0,1,0,.48,0h.48l.95,0h1l.95,0L39,3l.48,0,1,.07,1.89.21.94.16.47.08.24,0,.23.05.93.2.47.1c.16,0,.31.08.46.12a36.06,36.06,0,0,1,13.65,6.76,36.67,36.67,0,0,1,5.49,5.44l.31.38.29.39.58.77.29.4.27.4.55.81.5.83.26.41.12.21.12.22.47.85.23.43c.08.14.15.29.22.44A35.79,35.79,0,0,1,72,30.14a37,37,0,0,1,1,7.78,35.84,35.84,0,0,1-12.7,27.87A7.14,7.14,0,0,0,59,67.26a7.38,7.38,0,0,0-.9,1.77A7.6,7.6,0,0,0,57.7,71c0,.33,0,.67,0,1h0c0-.33,0-.67,0-1a7.52,7.52,0,0,1,.4-1.94,8,8,0,0,1,.9-1.75,7.73,7.73,0,0,1,1.34-1.46,37.09,37.09,0,0,0,12.31-20,37.62,37.62,0,0,0,1-7.92,38.16,38.16,0,0,0-3.16-15.64c-.07-.15-.13-.31-.2-.46l-.22-.46-.44-.91-.11-.22L69.38,20l-.24-.44-.48-.89-.52-.87-.26-.43-.27-.43L67,16.1l-.28-.42-.3-.41a38.48,38.48,0,0,0-5.46-6c-.25-.23-.52-.45-.78-.66l-.78-.65c-.27-.22-.55-.42-.82-.62s-.54-.42-.82-.61L57,6.14c-.28-.19-.56-.39-.86-.56l-.88-.53-.44-.26-.45-.25a36.73,36.73,0,0,0-7.59-3.12A35.37,35.37,0,0,0,38.62.06l-1,0c-.35,0-.69,0-1,0l-1,0L35,.05l-.52,0-1,.1L33,.24l-.51.09c-.67.11-1.35.21-2,.38a41.27,41.27,0,0,0-7.73,2.66c-.31.13-.62.28-.92.42l-.92.44-1.8.94-.88.51c-.29.18-.58.34-.86.53l-.85.55L16,7l-.41.3a37,37,0,0,0-14,19.28A36.1,36.1,0,0,0,.13,34.51l-.07,1L0,36v.5c0,.67,0,1.34,0,2a35.54,35.54,0,0,0,.31,4,36.32,36.32,0,0,0,1.91,7.77,37,37,0,0,0,8.53,13.39l.72.7.36.34.37.33.75.66.38.33.35.32a8.54,8.54,0,0,1,2.2,3.56l.27.32" transform="translate(1.83)"/><path class="cls-21" d="M37.17,87.62C41,87.35,45,87.08,48,86.74c3.46-.4,5.86-.8,6.33-2.39a2.46,2.46,0,0,0,.07-.29c0-.1,0-.21,0-.32,0-2.12-2.54-2.57-6.42-3-2.36-.27-5.37-.49-8.45-.71l-2.35-.16c-1.72-.12-3.63-.25-5.5-.4l.44,0h0l1.47-.11h0l3.54-.25L38.8,79l1.61-.12c2.25-.15,4.44-.32,6.33-.51l.26,0,.32-.09c.71-.21,1.42-.45,2.12-.7s1.59-.58,2.37-.91L53.15,76c.41-.2.82-.4,1.23-.62,0,0,0-.06,0-.09v-.11a1.72,1.72,0,0,0-.74-1.42l-1.23.56q-.73.32-1.47.6c-.77.3-1.55.57-2.34.82a38.73,38.73,0,0,1-4.75,1.17c-.59.11-1.18.2-1.77.28-.43.06-.85.11-1.28.15-.85.09-1.69.14-2.54.17-.48,0-1,0-1.43,0l-1.06,0c-.74,0-1.48-.06-2.21-.12h0a36.93,36.93,0,0,1-3.92-.54l-.69-.14-.44-.09-1.21-.29-.64.07-.49,0h0l-1.05.12h0l-1.18.16-.39.07h0l-.74.15-.08,0-.53.14c-1.51.42-2.39,1.09-2.39,2.33,0,2.12,2.54,2.56,6.42,3,3,.34,6.94.61,10.79.87l5.22.37.29,0h-.19c-1.81.14-3.65.27-5.32.38-3.85.27-7.83.54-10.79.88s-5.08.67-6,1.71A2,2,0,0,0,19.72,88c0,2.11,2.54,2.56,6.42,3,3,.34,6.94.62,10.79.88,1.73.12,3.65.25,5.52.4l-5.52.39c-3.85.26-7.83.54-10.79.87-3.88.45-6.42.9-6.42,3a1.75,1.75,0,0,0,3.12,1.08c1.75-.61,9-1.11,14.33-1.47C41,95.9,45,95.63,48,95.29c3.88-.44,6.42-.89,6.42-3s-2.54-2.57-6.42-3c-3-.34-6.95-.61-10.8-.88-1.42-.09-3-.2-4.54-.32l-1-.07h.18C33.65,87.86,35.5,87.73,37.17,87.62Z" transform="translate(1.83)"/><path class="cls-22" d="M42.44,83.74l-.17,0h0l-.1,0Z" transform="translate(1.83)"/></g><g id="Texts"><text class="cls-23" transform="translate(92.49 64.18)">InGen <tspan class="cls-24" x="148.62" y="0">L</tspan><tspan class="cls-25" x="177.2" y="0">abs</tspan><tspan class="cls-26" x="261.51" y="0">.</tspan></text></g></g></g></svg>